<svg width="100" height="28" viewBox="0 0 100 28" fill="none" xmlns="http://www.w3.org/2000/svg"><path fill-rule="evenodd" clip-rule="evenodd" d="M14.04 0C6.28 0 0 6.28 0 14.04c0 7.76 6.28 14.04 14.04 14.04 7.76 0 14.04-6.28 14.04-14.04C28.08 6.28 21.8 0 14.04 0Zm-2.04 20.48v-2.12c2.2.32 3.84 2.2 3.84 4.52 0 1.2-.4 2.28-1.12 3.12-2.12 2.4-5.4 2.6-7.88.48l-.08-.08c-2-1.76-2.92-4.44-2.52-7.08.36-2.4 1.92-4.48 4.08-5.72 2.36-1.32 5.2-1.28 7.52.12v2.12c-1.52-.88-3.32-1.16-5.04-.6-1.92.6-3.36 2.2-3.8 4.16-.56 2.4.48 4.96 2.56 6.24 2.28 1.4 5.24.76 6.84-1.4.64-.84.96-1.84.96-2.88 0-1.68-1-3.16-2.52-3.76Z" fill="#7B68EE"/><path fill-rule="evenodd" clip-rule="evenodd" d="M47.05 14.44c.48-2.6-1.16-5.16-3.64-6-2.44-.84-5.2.16-6.44 2.48l-1.04 1.96V6.92h-2.16v14.16h2.16V12.92c.04-.08 1.48-2.8 3.8-2.12 1.48.44 2.44 2.24 2.12 3.8-.44 2.12-2.48 3.56-4.56 3.2-1.2-.2-2.2-1-2.8-2.04v-2.44h-2.16v2.52c.64 2.04 2.36 3.6 4.56 4.16 3.8.96 7.4-1.24 8.16-4.84Z" fill="#7B68EE"/><path d="M57.65 6.92v2.16h4.64v12h2.16v-12h4.64V6.92h-11.44Z" fill="#7B68EE"/><path d="M72.29 21.08V6.92h-2.16v14.16h2.16Z" fill="#7B68EE"/><path d="M99.93 14.52c0-3.2-2.12-5.4-5.04-5.4-2.96 0-5.08 2.2-5.08 5.4s2.12 5.4 5.08 5.4c2.92 0 5.04-2.2 5.04-5.4Zm-7.96 0c0-1.96 1-3.24 2.92-3.24 1.92 0 2.92 1.28 2.92 3.24 0 1.96-1 3.24-2.92 3.24-1.92 0-2.92-1.28-2.92-3.24Z" fill="#7B68EE"/><path d="M80.05 19.96c2.92 0 5.08-2.2 5.08-5.4s-2.16-5.4-5.08-5.4c-2.92 0-5.08 2.2-5.08 5.4s2.16 5.4 5.08 5.4Zm0-2.16c-1.92 0-2.92-1.28-2.92-3.24s1-3.24 2.92-3.24c1.92 0 2.92 1.28 2.92 3.24s-1 3.24-2.92 3.24Z" fill="#7B68EE"/></svg>